<?xml version="1.0" encoding="utf-8"?>
<!-- Generator: Adobe Illustrator 22.0.1, SVG Export Plug-In . SVG Version: 6.00 Build 0)  -->
<svg xmlns="http://www.w3.org/2000/svg" xmlns:xlink="http://www.w3.org/1999/xlink" version="1.1" id="Layer_2" x="0px" y="0px" viewBox="0 0 256 256" style="enable-background:new 0 0 256 256;" xml:space="preserve" width="512" height="512">
<style type="text/css">
	.st0{fill:#3A312A;}
	.st1{fill:#D7E057;}
	.st2{fill:#F16C7A;}
	.st3{fill:#8AC6DD;}
	.st4{fill:#CE4E61;}
	.st5{fill:#68A8BC;}
	.st6{fill:#87796F;}
	.st7{fill:#FCE8CB;}
	.st8{fill:#6B5B51;}
	.st9{fill:#B9BC39;}
	.st10{fill:#CCAE8B;}
	.st11{fill:#8AC6DD;stroke:#3A312A;stroke-width:3;stroke-linecap:round;stroke-linejoin:round;stroke-miterlimit:10;}
	.st12{fill:#F5978A;}
	.st13{fill-rule:evenodd;clip-rule:evenodd;fill:#D7E057;}
	.st14{fill-rule:evenodd;clip-rule:evenodd;fill:#FCE8CB;}
</style>
<g>
	<g>
		<g>
			<path class="st1" d="M48.833,44.306c-0.974,11.564-13.025,13.39-13.025,13.39c10.347,0.487,12.925,14.059,12.925,14.059     c0.221-9.677,13.321-14.202,13.321-14.202C52.241,56.966,48.833,44.306,48.833,44.306z"/>
		</g>
	</g>
	<g>
		<g>
			<path class="st0" d="M62.145,56.056c-8.604-0.515-11.832-12.024-11.863-12.141c-0.19-0.702-0.854-1.168-1.584-1.102     c-0.725,0.066-1.298,0.642-1.359,1.367c-0.859,10.215-11.313,11.964-11.754,12.032c-0.763,0.116-1.313,0.791-1.273,1.561     c0.04,0.771,0.657,1.385,1.428,1.421c9.027,0.425,11.498,12.718,11.521,12.842c0.138,0.712,0.76,1.218,1.473,1.218     c0.042,0,0.084-0.002,0.126-0.005c0.764-0.064,1.357-0.693,1.375-1.46c0.194-8.509,12.191-12.777,12.313-12.819     c0.676-0.234,1.092-0.914,0.994-1.622C63.441,56.639,62.858,56.098,62.145,56.056z M48.578,66.401     c-1.356-3.131-3.708-6.907-7.586-8.877c2.931-1.404,6.408-3.912,8.201-8.272c1.551,3.071,4.2,6.88,8.334,8.723     C54.521,59.614,50.604,62.38,48.578,66.401z"/>
		</g>
	</g>
	<g>
		<g>
			<path class="st1" d="M27.134,61.287c-0.689,8.179-9.212,9.47-9.212,9.47c7.318,0.344,9.142,9.944,9.142,9.944     c0.156-6.844,9.422-10.045,9.422-10.045C29.545,70.241,27.134,61.287,27.134,61.287z"/>
		</g>
	</g>
	<g>
		<g>
			<path class="st0" d="M36.576,69.159c-5.767-0.345-7.972-8.186-7.993-8.265c-0.19-0.702-0.863-1.154-1.582-1.102     c-0.726,0.065-1.3,0.643-1.361,1.368c-0.579,6.87-7.646,8.066-7.942,8.113c-0.763,0.116-1.313,0.791-1.273,1.561     c0.04,0.771,0.657,1.385,1.428,1.421c6.035,0.284,7.724,8.645,7.739,8.727c0.136,0.712,0.759,1.22,1.473,1.22     c0.041,0,0.083-0.002,0.125-0.005c0.765-0.063,1.358-0.694,1.376-1.461c0.129-5.709,8.331-8.634,8.412-8.662     c0.676-0.233,1.093-0.913,0.996-1.622C37.875,69.743,37.29,69.201,36.576,69.159z M26.991,75.954     c-0.924-1.886-2.34-3.947-4.447-5.28c1.855-1.041,3.697-2.63,4.871-4.916c1.057,1.874,2.654,3.954,4.94,5.224     C30.507,72.082,28.367,73.722,26.991,75.954z"/>
		</g>
	</g>
	<g>
		<g>
			<path class="st1" d="M27.134,34.629c-0.689,8.179-9.212,9.471-9.212,9.471c7.318,0.344,9.142,9.944,9.142,9.944     c0.156-6.845,9.422-10.045,9.422-10.045C29.545,43.583,27.134,34.629,27.134,34.629z"/>
		</g>
	</g>
	<g>
		<g>
			<path class="st0" d="M36.576,42.502c-5.767-0.345-7.972-8.186-7.993-8.265c-0.19-0.702-0.863-1.153-1.582-1.102     c-0.726,0.065-1.3,0.643-1.361,1.368c-0.579,6.87-7.646,8.066-7.942,8.113c-0.763,0.116-1.313,0.791-1.273,1.561     c0.04,0.771,0.657,1.385,1.428,1.421c6.035,0.284,7.724,8.644,7.739,8.726c0.136,0.713,0.759,1.22,1.473,1.22     c0.041,0,0.083-0.002,0.125-0.005c0.765-0.063,1.358-0.694,1.376-1.461c0.129-5.708,8.331-8.633,8.412-8.661     c0.676-0.233,1.093-0.913,0.996-1.622C37.875,43.086,37.29,42.544,36.576,42.502z M26.991,49.296     c-0.924-1.885-2.34-3.946-4.447-5.279c1.855-1.041,3.697-2.63,4.871-4.916c1.057,1.874,2.654,3.954,4.94,5.224     C30.506,45.425,28.367,47.064,26.991,49.296z"/>
		</g>
	</g>
	<g>
		<g>
			<polygon class="st2" points="74.707,41.87 74.707,64.075 74.707,79.259 74.707,94.18 230.377,94.18 230.377,41.87    "/>
		</g>
	</g>
	<g>
		<g>
			<path class="st0" d="M230.377,40.37H74.707c-0.828,0-1.5,0.672-1.5,1.5v22.204c0,0.828,0.672,1.5,1.5,1.5s1.5-0.672,1.5-1.5     V43.37h152.67v49.31H76.207V79.259c0-0.828-0.672-1.5-1.5-1.5s-1.5,0.672-1.5,1.5V94.18c0,0.828,0.672,1.5,1.5,1.5h155.67     c0.828,0,1.5-0.672,1.5-1.5V41.87C231.877,41.042,231.205,40.37,230.377,40.37z"/>
		</g>
	</g>
	<g>
		<g>
			<rect x="74.707" y="107.64" class="st2" width="155.67" height="52.31"/>
		</g>
	</g>
	<g>
		<g>
			<path class="st0" d="M230.377,106.14H74.707c-0.828,0-1.5,0.672-1.5,1.5v52.311c0,0.828,0.672,1.5,1.5,1.5h155.67     c0.828,0,1.5-0.672,1.5-1.5V107.64C231.877,106.812,231.205,106.14,230.377,106.14z M228.877,158.45H76.207V109.14h152.67V158.45     z"/>
		</g>
	</g>
	<g>
		<g>
			<rect x="74.707" y="173.42" class="st2" width="155.67" height="52.3"/>
		</g>
	</g>
	<g>
		<g>
			<path class="st0" d="M230.377,171.92H74.707c-0.828,0-1.5,0.672-1.5,1.5v52.3c0,0.828,0.672,1.5,1.5,1.5h155.67     c0.828,0,1.5-0.672,1.5-1.5v-52.3C231.877,172.592,231.205,171.92,230.377,171.92z M228.877,224.22H76.207v-49.3h152.67V224.22z"/>
		</g>
	</g>
	<g>
		<g>
			<path class="st6" d="M210.927,16.81h-16.66c-3.412,0-6.179,2.766-6.179,6.179v5.414h29.018v-5.414     C217.106,19.576,214.34,16.81,210.927,16.81z"/>
		</g>
	</g>
	<g>
		<g>
			<path class="st0" d="M210.927,15.31h-16.66c-4.234,0-7.679,3.444-7.679,7.679v5.414c0,0.828,0.672,1.5,1.5,1.5h29.019     c0.828,0,1.5-0.672,1.5-1.5v-5.414C218.606,18.754,215.161,15.31,210.927,15.31z M215.606,26.902h-26.019v-3.914     c0-2.58,2.099-4.679,4.679-4.679h16.66c2.58,0,4.68,2.099,4.68,4.679V26.902z"/>
		</g>
	</g>
	<g>
		<g>
			<path class="st1" d="M231.344,28.403H73.742c-3.719,0-6.735,3.015-6.735,6.735s3.015,6.735,6.735,6.735h157.601     c3.719,0,6.734-3.015,6.734-6.735S235.063,28.403,231.344,28.403z"/>
		</g>
	</g>
	<g>
		<g>
			<path class="st0" d="M231.344,26.902H118.068c-0.828,0-1.5,0.672-1.5,1.5s0.672,1.5,1.5,1.5h113.275     c2.887,0,5.234,2.349,5.234,5.235s-2.348,5.234-5.234,5.234H73.742c-2.887,0-5.234-2.348-5.234-5.234s2.348-5.235,5.234-5.235     h30.623c0.828,0,1.5-0.672,1.5-1.5s-0.672-1.5-1.5-1.5H73.742c-4.54,0-8.234,3.694-8.234,8.235c0,4.54,3.694,8.234,8.234,8.234     h157.602c4.54,0,8.234-3.694,8.234-8.234C239.578,30.597,235.884,26.902,231.344,26.902z"/>
		</g>
	</g>
	<g>
		<g>
			<path class="st1" d="M231.344,94.176H73.742c-3.719,0-6.735,3.015-6.735,6.735l0,0c0,3.719,3.015,6.735,6.735,6.735h157.601     c3.719,0,6.734-3.015,6.734-6.735l0,0C238.078,97.191,235.063,94.176,231.344,94.176z"/>
		</g>
	</g>
	<g>
		<g>
			<path class="st0" d="M231.344,92.676H73.742c-4.54,0-8.234,3.694-8.234,8.234s3.694,8.234,8.234,8.234h157.602     c4.54,0,8.234-3.694,8.234-8.234S235.884,92.676,231.344,92.676z M231.344,106.145H73.742c-2.887,0-5.234-2.348-5.234-5.234     s2.348-5.234,5.234-5.234h157.602c2.887,0,5.234,2.348,5.234,5.234S234.23,106.145,231.344,106.145z"/>
		</g>
	</g>
	<g>
		<g>
			<path class="st1" d="M231.344,159.948H73.742c-3.719,0-6.735,3.015-6.735,6.735s3.015,6.735,6.735,6.735h157.601     c3.719,0,6.734-3.015,6.734-6.735S235.063,159.948,231.344,159.948z"/>
		</g>
	</g>
	<g>
		<g>
			<path class="st0" d="M231.344,158.448H73.742c-4.54,0-8.234,3.694-8.234,8.234c0,4.541,3.694,8.235,8.234,8.235h157.602     c4.54,0,8.234-3.694,8.234-8.235C239.578,162.143,235.884,158.448,231.344,158.448z M231.344,171.918H73.742     c-2.887,0-5.234-2.349-5.234-5.235s2.348-5.234,5.234-5.234h157.602c2.887,0,5.234,2.348,5.234,5.234     S234.23,171.918,231.344,171.918z"/>
		</g>
	</g>
	<g>
		<g>
			<path class="st1" d="M231.344,225.721H73.742c-3.719,0-6.735,3.015-6.735,6.735s3.015,6.735,6.735,6.735h157.601     c3.719,0,6.734-3.015,6.734-6.735S235.063,225.721,231.344,225.721z"/>
		</g>
	</g>
	<g>
		<g>
			<path class="st0" d="M231.344,224.221H73.742c-4.54,0-8.234,3.694-8.234,8.235c0,4.54,3.694,8.234,8.234,8.234h157.602     c4.54,0,8.234-3.694,8.234-8.234C239.578,227.915,235.884,224.221,231.344,224.221z M231.344,237.69H73.742     c-2.887,0-5.234-2.348-5.234-5.234s2.348-5.235,5.234-5.235h157.602c2.887,0,5.234,2.349,5.234,5.235     S234.23,237.69,231.344,237.69z"/>
		</g>
	</g>
	<g>
		<g>
			<path class="st9" d="M231.347,161.45h-13.5c2.88,0,5.23,2.35,5.23,5.23c0,2.89-2.35,5.24-5.23,5.24h13.5     c2.88,0,5.23-2.35,5.23-5.24C236.577,163.8,234.227,161.45,231.347,161.45z"/>
		</g>
	</g>
	<g>
		<g>
			<rect x="215.547" y="43.37" class="st4" width="13.33" height="49.31"/>
		</g>
	</g>
	<g>
		<g>
			<rect x="215.547" y="109.15" class="st4" width="13.33" height="49.3"/>
		</g>
	</g>
	<g>
		<g>
			<rect x="215.547" y="174.92" class="st4" width="13.33" height="49.3"/>
		</g>
	</g>
	<g>
		<g>
			<path class="st9" d="M231.347,29.9h-13.34c2.89,0,5.24,2.35,5.24,5.24c0,2.88-2.35,5.23-5.24,5.23h13.34     c2.88,0,5.23-2.35,5.23-5.23C236.577,32.25,234.227,29.9,231.347,29.9z"/>
		</g>
	</g>
	<g>
		<g>
			<path class="st9" d="M231.347,95.68h-13.34c2.89,0,5.24,2.34,5.24,5.23c0,2.89-2.35,5.24-5.24,5.24h13.34     c2.88,0,5.23-2.35,5.23-5.24C236.577,98.02,234.227,95.68,231.347,95.68z"/>
		</g>
	</g>
	<g>
		<g>
			<path class="st9" d="M231.347,227.22h-13.34c2.89,0,5.24,2.35,5.24,5.24c0,2.88-2.35,5.23-5.24,5.23h13.34     c2.88,0,5.23-2.35,5.23-5.23C236.577,229.57,234.227,227.22,231.347,227.22z"/>
		</g>
	</g>
	<g>
		<g>
			<path class="st1" d="M95.833,224H28.5c-3.774,0-6.833,3.059-6.833,6.833v1.333c0,3.774,3.059,6.833,6.833,6.833h67.333     c3.774,0,6.833-3.059,6.833-6.833v-1.333C102.667,227.059,99.607,224,95.833,224z"/>
		</g>
	</g>
	<g>
		<g>
			<path class="st0" d="M95.833,222.5H28.5c-4.595,0-8.333,3.738-8.333,8.333v1.334c0,4.595,3.738,8.333,8.333,8.333h67.333     c4.596,0,8.334-3.738,8.334-8.333v-1.334C104.167,226.238,100.429,222.5,95.833,222.5z M101.167,232.167     c0,2.94-2.393,5.333-5.334,5.333H28.5c-2.94,0-5.333-2.393-5.333-5.333v-1.334c0-2.94,2.393-5.333,5.333-5.333h67.333     c2.941,0,5.334,2.393,5.334,5.333V232.167z"/>
		</g>
	</g>
	<g>
		<g>
			<path class="st1" d="M95.833,209H28.5c-3.774,0-6.833,3.059-6.833,6.833v1.333c0,3.774,3.059,6.833,6.833,6.833h67.333     c3.774,0,6.833-3.059,6.833-6.833v-1.333C102.667,212.059,99.607,209,95.833,209z"/>
		</g>
	</g>
	<g>
		<g>
			<path class="st0" d="M95.833,207.5H28.5c-4.595,0-8.333,3.738-8.333,8.333v1.334c0,4.595,3.738,8.333,8.333,8.333h67.333     c4.596,0,8.334-3.738,8.334-8.333v-1.334C104.167,211.238,100.429,207.5,95.833,207.5z M101.167,217.167     c0,2.94-2.393,5.333-5.334,5.333H28.5c-2.94,0-5.333-2.393-5.333-5.333v-1.334c0-2.94,2.393-5.333,5.333-5.333h67.333     c2.941,0,5.334,2.393,5.334,5.333V217.167z"/>
		</g>
	</g>
	<g>
		<g>
			<path class="st1" d="M95.833,194H28.5c-3.774,0-6.833,3.059-6.833,6.833v1.333c0,3.774,3.059,6.833,6.833,6.833h67.333     c3.774,0,6.833-3.059,6.833-6.833v-1.333C102.667,197.059,99.607,194,95.833,194z"/>
		</g>
	</g>
	<g>
		<g>
			<path class="st0" d="M95.833,192.5H28.5c-4.595,0-8.333,3.738-8.333,8.333v1.334c0,4.595,3.738,8.333,8.333,8.333h67.333     c4.596,0,8.334-3.738,8.334-8.333v-1.334C104.167,196.238,100.429,192.5,95.833,192.5z M101.167,202.167     c0,2.94-2.393,5.333-5.334,5.333H28.5c-2.94,0-5.333-2.393-5.333-5.333v-1.334c0-2.94,2.393-5.333,5.333-5.333h67.333     c2.941,0,5.334,2.393,5.334,5.333V202.167z"/>
		</g>
	</g>
	<g>
		<g>
			<circle class="st1" cx="62.167" cy="152.667" r="40.5"/>
		</g>
	</g>
	<g>
		<g>
			<path class="st0" d="M62.167,110.667c-23.159,0-42,18.841-42,42s18.841,42,42,42s42-18.841,42-42S85.326,110.667,62.167,110.667z      M62.167,191.667c-21.505,0-39-17.495-39-39s17.495-39,39-39s39,17.495,39,39S83.672,191.667,62.167,191.667z"/>
		</g>
	</g>
	<g>
		<g>
			<path class="st6" d="M66.982,148.087c-5.899-2.22-8.328-3.677-8.328-5.968c0-1.942,1.458-3.886,5.968-3.886     c4.996,0,8.188,1.595,9.992,2.359l2.013-7.841c-2.29-1.111-5.413-2.083-10.062-2.29v-6.107h-6.801v6.592     c-7.425,1.457-11.727,6.245-11.727,12.352c0,6.731,5.065,10.202,12.49,12.699c5.135,1.735,7.356,3.401,7.356,6.037     c0,2.777-2.707,4.303-6.662,4.303c-4.511,0-8.605-1.457-11.519-3.053l-2.082,8.118c2.637,1.526,7.147,2.775,11.796,2.984v6.592     h6.801V173.9c7.98-1.387,12.352-6.661,12.352-12.837C78.57,154.818,75.239,151.001,66.982,148.087z"/>
		</g>
	</g>
	<g>
		<g>
			<path class="st0" d="M67.51,146.683c-5.362-2.018-7.355-3.254-7.355-4.563c0-2.076,2.799-2.386,4.468-2.386     c4.246,0,7.039,1.214,8.888,2.017l0.52,0.224c0.403,0.172,0.86,0.157,1.25-0.036c0.392-0.194,0.68-0.549,0.788-0.972l2.013-7.841     c0.177-0.691-0.157-1.411-0.799-1.723c-2.651-1.285-5.677-2.058-9.216-2.349v-4.699c0-0.828-0.672-1.5-1.5-1.5h-6.801     c-0.828,0-1.5,0.672-1.5,1.5v5.392c-7.268,1.847-11.727,6.951-11.727,13.553c0,8.488,7.221,12.005,13.51,14.12     c5.568,1.881,6.336,3.33,6.336,4.615c0,2.602-3.951,2.804-5.162,2.804c-4.835,0-8.841-1.797-10.799-2.868     c-0.405-0.223-0.891-0.245-1.317-0.061c-0.425,0.185-0.74,0.555-0.855,1.003l-2.082,8.118c-0.167,0.651,0.12,1.334,0.701,1.671     c2.721,1.575,6.854,2.72,11.048,3.089v5.188c0,0.828,0.672,1.5,1.5,1.5h6.801c0.828,0,1.5-0.672,1.5-1.5v-5.853     c7.548-1.762,12.353-7.173,12.353-14.063C80.07,154.091,76.305,149.786,67.51,146.683z M65.961,172.423     c-0.719,0.125-1.243,0.748-1.243,1.478v5.578h-3.801v-5.092c0-0.802-0.631-1.463-1.433-1.498     c-3.659-0.165-7.48-1.033-10.114-2.266l1.324-5.167c2.468,1.125,6.195,2.382,10.527,2.382c5.034,0,8.162-2.224,8.162-5.804     c0-4.067-4.025-5.988-8.377-7.458c-8.039-2.703-11.469-6.076-11.469-11.277c0-5.521,3.931-9.588,10.516-10.881     c0.703-0.138,1.211-0.755,1.211-1.472v-5.092h3.801v4.607c0,0.803,0.632,1.463,1.434,1.498c3.23,0.145,5.979,0.685,8.359,1.647     l-1.263,4.92c-1.996-0.817-4.932-1.794-8.974-1.794c-6.93,0-7.468,4.122-7.468,5.386c0,3.587,4.03,5.389,9.328,7.382     c7.619,2.689,10.588,5.931,10.588,11.563C77.07,166.879,72.813,171.231,65.961,172.423z"/>
		</g>
	</g>
	<g>
		<g>
			<path class="st9" d="M95.83,225.5h-9c2.94,0,5.34,2.39,5.34,5.33v1.34c0,2.94-2.4,5.33-5.34,5.33h9c2.94,0,5.34-2.39,5.34-5.33     v-1.34C101.17,227.89,98.77,225.5,95.83,225.5z"/>
		</g>
	</g>
	<g>
		<g>
			<path class="st9" d="M95.83,210.5h-9c2.94,0,5.34,2.39,5.34,5.33v1.34c0,2.94-2.4,5.33-5.34,5.33h9c2.94,0,5.34-2.39,5.34-5.33     v-1.34C101.17,212.89,98.77,210.5,95.83,210.5z"/>
		</g>
	</g>
	<g>
		<g>
			<path class="st9" d="M95.83,195.5h-9c2.94,0,5.34,2.39,5.34,5.33v1.34c0,2.94-2.4,5.33-5.34,5.33h9c2.94,0,5.34-2.39,5.34-5.33     v-1.34C101.17,197.89,98.77,195.5,95.83,195.5z"/>
		</g>
	</g>
	<g>
		<g>
			<path class="st9" d="M62.17,113.67c-1.52,0-3.02,0.09-4.5,0.26c19.39,2.24,34.5,18.75,34.5,38.74c0,19.98-15.11,36.5-34.5,38.74     c1.48,0.17,2.98,0.26,4.5,0.26c21.5,0,39-17.5,39-39C101.17,131.16,83.67,113.67,62.17,113.67z"/>
		</g>
	</g>
	<g>
		<g>
			<path class="st7" d="M152.747,113.25c-11.347,0-20.577,9.231-20.577,20.578s9.23,20.578,20.577,20.578     s20.578-9.231,20.578-20.578S164.094,113.25,152.747,113.25z"/>
		</g>
	</g>
	<g>
		<g>
			<path class="st0" d="M152.747,111.75c-12.174,0-22.077,9.903-22.077,22.077c0,12.175,9.903,22.079,22.077,22.079     s22.078-9.904,22.078-22.079C174.825,121.653,164.921,111.75,152.747,111.75z M152.747,152.906     c-10.52,0-19.077-8.559-19.077-19.079c0-10.52,8.558-19.077,19.077-19.077s19.078,8.558,19.078,19.077     C171.825,144.348,163.267,152.906,152.747,152.906z"/>
		</g>
	</g>
	<g>
		<g>
			<path class="st1" d="M152.747,120.539c-1.574,0-9.168,8.219-9.168,15.558c0,7.34,4.104,11.02,9.168,11.02     s9.168-3.681,9.168-11.02C161.915,128.757,154.599,120.539,152.747,120.539z"/>
		</g>
	</g>
	<g>
		<g>
			<path class="st0" d="M152.747,119.039c-2.934,0-10.668,9.479-10.668,17.058c0,7.605,4.188,12.52,10.668,12.52     s10.668-4.914,10.668-12.52C163.415,128.329,155.761,119.039,152.747,119.039z M152.747,145.616c-4.729,0-7.668-3.647-7.668-9.52     c0-6.2,6.028-12.964,7.709-13.987c1.819,0.967,7.627,7.854,7.627,13.987C160.415,141.969,157.477,145.616,152.747,145.616z"/>
		</g>
	</g>
</g>
</svg>
